<svg width="208" height="42" viewBox="0 0 208 42" fill="none" xmlns="http://www.w3.org/2000/svg">
<path opacity="0.5" d="M40.0652 2.25671L30.2601 36.9917C30.2102 37.1494 30.0108 37.1967 29.8945 37.0863L23.3301 30.8583L28.2492 13.4514C28.2991 13.2937 28.1495 13.1518 27.9833 13.1991L9.63617 17.8662L3.10498 11.6697C2.98865 11.5593 3.03851 11.3701 3.20469 11.3228L39.7993 2.00444C39.9655 1.97291 40.115 2.11481 40.0652 2.25671Z" fill="#00B37E"/>
<path opacity="0.5" d="M23.3297 30.858L20.8037 39.8452C20.7538 40.0029 20.5544 40.0502 20.4381 39.9398L0.0634003 20.6251C-0.0529313 20.5147 -0.00307518 20.3255 0.163113 20.2782L9.63583 17.8658L23.3297 30.858Z" fill="#00B37E"/>
<path d="M28.2484 13.4511L23.3292 30.858L9.63533 17.8659L27.9825 13.1988C28.1487 13.1515 28.2982 13.2934 28.2484 13.4511Z" fill="#00B37E"/>
<path d="M57.6898 11.3104H64.4734C65.8643 11.3104 67.0594 11.5186 68.0589 11.9351C69.0666 12.3515 69.8412 12.9678 70.3825 13.784C70.9239 14.6002 71.1946 15.6038 71.1946 16.7948C71.1946 17.7692 71.028 18.6062 70.6949 19.3058C70.37 19.9971 69.9078 20.576 69.3082 21.0424C68.7168 21.5004 68.0214 21.8669 67.2219 22.1417L66.035 22.7664H60.1384L60.1134 19.843H64.4984C65.1564 19.843 65.7019 19.7264 66.135 19.4932C66.5681 19.26 66.8929 18.9352 67.1094 18.5188C67.3343 18.1024 67.4467 17.6193 67.4467 17.0696C67.4467 16.4866 67.3385 15.9828 67.1219 15.558C66.9054 15.1332 66.5764 14.8084 66.135 14.5836C65.6936 14.3587 65.1397 14.2462 64.4734 14.2462H61.4377V29.5H57.6898V11.3104ZM67.859 29.5L63.7114 21.3922L67.6716 21.3672L71.8692 29.3251V29.5H67.859ZM80.077 29.7499C79.0276 29.7499 78.0865 29.5833 77.2536 29.2501C76.4207 28.9087 75.7128 28.4381 75.1298 27.8385C74.5551 27.2388 74.1137 26.5434 73.8056 25.7521C73.4974 24.9526 73.3433 24.1031 73.3433 23.2036V22.7039C73.3433 21.6795 73.4891 20.7425 73.7806 19.893C74.0721 19.0435 74.4885 18.3064 75.0299 17.6818C75.5796 17.0571 76.2458 16.5782 77.0287 16.2451C77.8116 15.9036 78.6944 15.7329 79.6772 15.7329C80.635 15.7329 81.4845 15.8911 82.2257 16.2076C82.967 16.5241 83.5875 16.9739 84.0872 17.5569C84.5952 18.1398 84.9783 18.8394 85.2365 19.6556C85.4947 20.4635 85.6238 21.363 85.6238 22.3541V23.8532H74.88V21.4546H82.0883V21.1798C82.0883 20.6801 81.9967 20.2345 81.8135 19.843C81.6386 19.4433 81.3721 19.1268 81.0139 18.8936C80.6558 18.6604 80.1977 18.5438 79.6397 18.5438C79.165 18.5438 78.7569 18.6479 78.4154 18.8561C78.074 19.0643 77.795 19.3558 77.5784 19.7306C77.3702 20.1054 77.212 20.5468 77.1037 21.0548C77.0037 21.5546 76.9538 22.1042 76.9538 22.7039V23.2036C76.9538 23.745 77.0287 24.2447 77.1786 24.7028C77.3369 25.1608 77.5576 25.5564 77.8408 25.8896C78.1323 26.2227 78.4821 26.4809 78.8902 26.6641C79.3066 26.8474 79.7771 26.939 80.3018 26.939C80.9515 26.939 81.5553 26.814 82.1133 26.5642C82.6797 26.306 83.1669 25.9187 83.575 25.4024L85.324 27.3013C85.0408 27.7094 84.6535 28.1008 84.1621 28.4756C83.6791 28.8504 83.0961 29.1585 82.4131 29.4001C81.7302 29.6333 80.9515 29.7499 80.077 29.7499ZM94.9684 26.4517V20.4302C94.9684 19.9971 94.8976 19.6265 94.7561 19.3183C94.6145 19.0019 94.3938 18.7562 94.0939 18.5813C93.8024 18.4064 93.4235 18.3189 92.9571 18.3189C92.5573 18.3189 92.2117 18.3897 91.9202 18.5313C91.6287 18.6645 91.4038 18.8603 91.2456 19.1185C91.0873 19.3683 91.0082 19.664 91.0082 20.0054H87.4103C87.4103 19.4308 87.5435 18.8853 87.81 18.3689C88.0766 17.8525 88.4638 17.3986 88.9719 17.0072C89.4799 16.6074 90.0837 16.2951 90.7833 16.0702C91.4913 15.8453 92.2825 15.7329 93.157 15.7329C94.2064 15.7329 95.1392 15.9078 95.9554 16.2576C96.7716 16.6074 97.4129 17.1321 97.8793 17.8317C98.354 18.5313 98.5914 19.4058 98.5914 20.4552V26.2394C98.5914 26.9806 98.6372 27.5886 98.7288 28.0633C98.8204 28.5297 98.9536 28.9378 99.1285 29.2876V29.5H95.4931C95.3182 29.1335 95.185 28.6755 95.0934 28.1258C95.0101 27.5678 94.9684 27.0098 94.9684 26.4517ZM95.4432 21.2672L95.4681 23.3036H93.4568C92.9821 23.3036 92.5698 23.3577 92.22 23.466C91.8702 23.5742 91.5829 23.7283 91.358 23.9282C91.1331 24.1198 90.9666 24.3446 90.8583 24.6028C90.7583 24.861 90.7084 25.1442 90.7084 25.4523C90.7084 25.7605 90.7792 26.0395 90.9208 26.2893C91.0623 26.5309 91.2664 26.7224 91.5329 26.864C91.7994 26.9973 92.1117 27.0639 92.4699 27.0639C93.0112 27.0639 93.4818 26.9556 93.8816 26.7391C94.2813 26.5225 94.5895 26.256 94.806 25.9395C95.0309 25.6231 95.1475 25.3232 95.1558 25.0401L96.1053 26.5642C95.972 26.9057 95.7888 27.2596 95.5556 27.6261C95.3307 27.9925 95.0434 28.3382 94.6936 28.663C94.3438 28.9795 93.9232 29.2418 93.4318 29.45C92.9404 29.6499 92.3574 29.7499 91.6828 29.7499C90.825 29.7499 90.0463 29.5791 89.3467 29.2377C88.6554 28.8879 88.1057 28.409 87.6976 27.801C87.2978 27.1847 87.0979 26.4851 87.0979 25.7022C87.0979 24.9943 87.2312 24.3654 87.4977 23.8158C87.7642 23.2661 88.1557 22.8038 88.672 22.4291C89.1967 22.0459 89.8505 21.7586 90.6334 21.5671C91.4163 21.3672 92.3241 21.2672 93.3569 21.2672H95.4432ZM106.949 26.939C107.39 26.939 107.782 26.8557 108.123 26.6891C108.465 26.5142 108.731 26.2727 108.923 25.9645C109.123 25.648 109.227 25.2774 109.235 24.8527H112.621C112.612 25.8021 112.358 26.6475 111.859 27.3887C111.359 28.1216 110.689 28.7005 109.847 29.1252C109.006 29.5416 108.065 29.7499 107.024 29.7499C105.975 29.7499 105.058 29.575 104.276 29.2252C103.501 28.8754 102.856 28.3923 102.339 27.776C101.823 27.1513 101.436 26.4268 101.177 25.6022C100.919 24.7694 100.79 23.8782 100.79 22.9288V22.5665C100.79 21.6087 100.919 20.7175 101.177 19.893C101.436 19.0602 101.823 18.3356 102.339 17.7193C102.856 17.0946 103.501 16.6074 104.276 16.2576C105.05 15.9078 105.958 15.7329 106.999 15.7329C108.107 15.7329 109.077 15.9453 109.91 16.37C110.751 16.7948 111.409 17.4028 111.884 18.194C112.367 18.9769 112.612 19.9055 112.621 20.9799H109.235C109.227 20.5301 109.131 20.122 108.948 19.7556C108.773 19.3891 108.515 19.0976 108.173 18.8811C107.84 18.6562 107.428 18.5438 106.937 18.5438C106.412 18.5438 105.983 18.6562 105.65 18.8811C105.317 19.0976 105.058 19.3975 104.875 19.7806C104.692 20.1554 104.563 20.5843 104.488 21.0673C104.421 21.5421 104.388 22.0418 104.388 22.5665V22.9288C104.388 23.4535 104.421 23.9573 104.488 24.4404C104.555 24.9235 104.68 25.3524 104.863 25.7272C105.054 26.1019 105.317 26.3976 105.65 26.6142C105.983 26.8307 106.416 26.939 106.949 26.939ZM121.328 15.9828V18.5313H113.458V15.9828H121.328ZM115.407 12.6472H119.005V25.4273C119.005 25.8188 119.055 26.1186 119.155 26.3268C119.263 26.535 119.421 26.6808 119.629 26.7641C119.838 26.839 120.1 26.8765 120.416 26.8765C120.641 26.8765 120.841 26.8682 121.016 26.8515C121.199 26.8265 121.353 26.8015 121.478 26.7766L121.491 29.425C121.183 29.525 120.849 29.6041 120.491 29.6624C120.133 29.7207 119.738 29.7499 119.304 29.7499C118.513 29.7499 117.822 29.6208 117.231 29.3626C116.648 29.0961 116.198 28.6713 115.881 28.0883C115.565 27.5053 115.407 26.7391 115.407 25.7896V12.6472ZM131.685 11.3104H134.858L139.53 24.6653L144.203 11.3104H147.376L140.805 29.5H138.256L131.685 11.3104ZM129.973 11.3104H133.134L133.709 24.328V29.5H129.973V11.3104ZM145.927 11.3104H149.1V29.5H145.352V24.328L145.927 11.3104ZM151.586 22.8788V22.6164C151.586 21.6253 151.728 20.7134 152.011 19.8805C152.294 19.0393 152.706 18.3106 153.248 17.6943C153.789 17.078 154.455 16.5991 155.246 16.2576C156.038 15.9078 156.945 15.7329 157.97 15.7329C158.994 15.7329 159.906 15.9078 160.706 16.2576C161.505 16.5991 162.176 17.078 162.717 17.6943C163.267 18.3106 163.683 19.0393 163.966 19.8805C164.25 20.7134 164.391 21.6253 164.391 22.6164V22.8788C164.391 23.8616 164.25 24.7735 163.966 25.6147C163.683 26.4476 163.267 27.1763 162.717 27.801C162.176 28.4173 161.509 28.8962 160.718 29.2377C159.927 29.5791 159.019 29.7499 157.995 29.7499C156.97 29.7499 156.058 29.5791 155.259 29.2377C154.468 28.8962 153.797 28.4173 153.248 27.801C152.706 27.1763 152.294 26.4476 152.011 25.6147C151.728 24.7735 151.586 23.8616 151.586 22.8788ZM155.184 22.6164V22.8788C155.184 23.4451 155.234 23.974 155.334 24.4654C155.434 24.9568 155.592 25.3899 155.809 25.7646C156.033 26.1311 156.325 26.4184 156.683 26.6266C157.041 26.8349 157.478 26.939 157.995 26.939C158.495 26.939 158.923 26.8349 159.282 26.6266C159.64 26.4184 159.927 26.1311 160.144 25.7646C160.36 25.3899 160.518 24.9568 160.618 24.4654C160.727 23.974 160.781 23.4451 160.781 22.8788V22.6164C160.781 22.0668 160.727 21.5504 160.618 21.0673C160.518 20.576 160.356 20.1429 160.131 19.7681C159.915 19.385 159.627 19.0851 159.269 18.8686C158.911 18.6521 158.478 18.5438 157.97 18.5438C157.462 18.5438 157.029 18.6521 156.671 18.8686C156.321 19.0851 156.033 19.385 155.809 19.7681C155.592 20.1429 155.434 20.576 155.334 21.0673C155.234 21.5504 155.184 22.0668 155.184 22.6164ZM170.125 18.8686V29.5H166.527V15.9828H169.9L170.125 18.8686ZM169.601 22.2666H168.626C168.626 21.2672 168.755 20.3677 169.013 19.5682C169.272 18.7603 169.634 18.0732 170.1 17.5069C170.567 16.9322 171.121 16.495 171.762 16.1951C172.412 15.887 173.136 15.7329 173.936 15.7329C174.569 15.7329 175.147 15.8245 175.672 16.0077C176.197 16.191 176.647 16.4825 177.021 16.8822C177.404 17.282 177.696 17.8109 177.896 18.4688C178.104 19.1268 178.208 19.9305 178.208 20.8799V29.5H174.585V20.8675C174.585 20.2678 174.502 19.8014 174.335 19.4683C174.169 19.1351 173.923 18.9019 173.598 18.7687C173.282 18.6271 172.89 18.5563 172.424 18.5563C171.941 18.5563 171.52 18.6521 171.162 18.8436C170.812 19.0352 170.521 19.3017 170.288 19.6432C170.063 19.9763 169.892 20.3677 169.776 20.8175C169.659 21.2672 169.601 21.7503 169.601 22.2666ZM187.166 29.7499C186.116 29.7499 185.175 29.5833 184.342 29.2501C183.509 28.9087 182.801 28.4381 182.218 27.8385C181.644 27.2388 181.202 26.5434 180.894 25.7521C180.586 24.9526 180.432 24.1031 180.432 23.2036V22.7039C180.432 21.6795 180.578 20.7425 180.869 19.893C181.161 19.0435 181.577 18.3064 182.118 17.6818C182.668 17.0571 183.334 16.5782 184.117 16.2451C184.9 15.9036 185.783 15.7329 186.766 15.7329C187.724 15.7329 188.573 15.8911 189.314 16.2076C190.056 16.5241 190.676 16.9739 191.176 17.5569C191.684 18.1398 192.067 18.8394 192.325 19.6556C192.583 20.4635 192.712 21.363 192.712 22.3541V23.8532H181.969V21.4546H189.177V21.1798C189.177 20.6801 189.085 20.2345 188.902 19.843C188.727 19.4433 188.461 19.1268 188.103 18.8936C187.744 18.6604 187.286 18.5438 186.728 18.5438C186.254 18.5438 185.845 18.6479 185.504 18.8561C185.163 19.0643 184.884 19.3558 184.667 19.7306C184.459 20.1054 184.301 20.5468 184.192 21.0548C184.092 21.5546 184.042 22.1042 184.042 22.7039V23.2036C184.042 23.745 184.117 24.2447 184.267 24.7028C184.425 25.1608 184.646 25.5564 184.929 25.8896C185.221 26.2227 185.571 26.4809 185.979 26.6641C186.395 26.8474 186.866 26.939 187.39 26.939C188.04 26.939 188.644 26.814 189.202 26.5642C189.768 26.306 190.255 25.9187 190.664 25.4024L192.413 27.3013C192.129 27.7094 191.742 28.1008 191.251 28.4756C190.768 28.8504 190.185 29.1585 189.502 29.4001C188.819 29.6333 188.04 29.7499 187.166 29.7499ZM198.597 27.9759L202.182 15.9828H206.042L200.608 31.5363C200.491 31.8778 200.333 32.2443 200.133 32.6357C199.942 33.0271 199.679 33.3978 199.346 33.7476C199.021 34.1057 198.609 34.3972 198.109 34.6221C197.618 34.8469 197.014 34.9594 196.298 34.9594C195.956 34.9594 195.677 34.9385 195.461 34.8969C195.244 34.8553 194.986 34.797 194.686 34.722V32.086C194.778 32.086 194.874 32.086 194.974 32.086C195.074 32.0943 195.169 32.0985 195.261 32.0985C195.736 32.0985 196.123 32.0444 196.423 31.9361C196.723 31.8278 196.964 31.6613 197.147 31.4364C197.331 31.2198 197.476 30.9367 197.585 30.5869L198.597 27.9759ZM197.097 15.9828L200.033 25.7771L200.545 29.5874L198.097 29.8498L193.237 15.9828H197.097Z" fill="#E1E1E6"/>
</svg>
